Coordinates
version=1
nRows=11
nColumns=40
inDegrees=yes

Units are S.I. units (second, meters, Newtons, ...)
If the header above contains a line with 'inDegrees', this indicates whether rotational values are in degrees (yes) or radians (no).

endheader
time	pelvis_tilt	pelvis_list	pelvis_rotation	pelvis_tx	pelvis_ty	pelvis_tz	hip_flexion_r	hip_adduction_r	hip_rotation_r	knee_angle_r	knee_angle_r_beta	ankle_angle_r	subtalar_angle_r	mtp_angle_r	hip_flexion_l	hip_adduction_l	hip_rotation_l	knee_angle_l	knee_angle_l_beta	ankle_angle_l	subtalar_angle_l	mtp_angle_l	lumbar_extension	lumbar_bending	lumbar_rotation	arm_flex_r	arm_add_r	arm_rot_r	elbow_flex_r	pro_sup_r	wrist_flex_r	wrist_dev_r	arm_flex_l	arm_add_l	arm_rot_l	elbow_flex_l	pro_sup_l	wrist_flex_l	wrist_dev_l
      0.00000000	     -9.47234173	     14.41581492	      3.89884695	     -0.25465122	      1.06027837	      0.25945007	     50.18695063	    -19.95748015	     11.64596040	     68.99408381	      1.20417393	     -9.38490695	    -28.69535155	      0.00000000	     85.09160961	     -2.88798672	    -15.92745501	     98.79257834	      1.72425577	     18.64768451	    -13.13976784	      0.00000000	    -47.67027314	    -12.26288795	    -16.32547667	     89.75761430	     -7.86218886	     63.99350934	     17.28206420	     86.81515206	      0.00000000	      0.00000000	     89.85123822	     -4.18691841	     40.26657547	     28.98888677	     88.84382094	      0.00000000	      0.00000000
      0.00833333	     -9.26357054	     14.04152174	      3.58175042	     -0.25477632	      1.06074272	      0.26005520	     50.68263992	    -19.28835856	     11.98033423	     71.53091333	      1.24844995	     -8.29191774	    -28.89014939	      0.00000000	     83.75243851	     -2.93608440	    -15.79867169	     96.38504845	      1.68223645	     18.62023642	    -13.25863788	      0.00000000	    -47.76626872	    -12.08151668	    -15.81677545	     89.77710339	     -7.84865393	     63.76560903	     17.36547100	     86.76415150	      0.00000000	      0.00000000	     89.85123363	     -4.14444888	     40.11891894	     28.88147541	     88.84522181	      0.00000000	      0.00000000
      0.01666667	     -9.10126053	     14.63654221	      3.07778680	     -0.25485696	      1.06132588	      0.26007994	     51.73533469	    -19.44765795	     13.21880974	     74.20988876	      1.29520690	     -6.75501149	    -27.06879558	      0.00000000	     82.04506580	     -2.75028588	    -16.74474181	     93.55598861	      1.63286004	     17.70020546	    -13.29536159	      0.00000000	    -48.02249863	    -12.75414591	    -15.94500112	     89.77795576	     -7.85964436	     63.21938990	     17.57909463	     86.90028712	      0.00000000	      0.00000000	     89.85287488	     -4.15561156	     39.82574253	     28.93383805	     88.85339947	      0.00000000	      0.00000000
      0.02500000	     -8.80864968	     14.11239659	      2.75868037	     -0.25470346	      1.06145731	      0.26060790	     52.27001329	    -18.64321342	     13.54361762	     77.04017799	      1.34460476	     -5.29403523	    -27.47459493	      0.00000000	     80.57239634	     -2.79274952	    -16.42322406	     91.14703084	      1.59081579	     17.09034914	    -13.25369673	      0.00000000	    -48.15207469	    -12.44489432	    -15.38711251	     89.79360659	     -7.80765743	     63.04910922	     17.60950023	     86.85327537	      0.00000000	      0.00000000	     89.85524552	     -4.22132897	     39.71417635	     28.88058868	     88.86947546	      0.00000000	      0.00000000
      0.03333333	     -8.55682213	     13.83543298	      2.24121304	     -0.25458366	      1.06185522	      0.26128350	     52.99858161	    -17.97217451	     13.96788528	     79.69650042	      1.39096633	     -3.77838147	    -27.41006957	      0.00000000	     78.81913160	     -2.89003432	    -16.43699529	     88.53505650	      1.54522824	     16.67778825	    -13.21200819	      0.00000000	    -48.27687801	    -12.47425882	    -14.83553584	     89.79947457	     -7.85043024	     62.74910913	     17.78041076	     86.83567999	      0.00000000	      0.00000000	     89.85753722	     -4.25824786	     39.57420297	     28.79182336	     88.87781809	      0.00000000	      0.00000000
      0.04166667	     -8.12009272	     14.74137093	      1.50887813	     -0.25401755	      1.06267345	      0.26150635	     54.08380782	    -18.26529417	     15.67634823	     82.72773589	      1.44387137	     -1.16912541	    -24.66792485	      0.00000000	     76.46012078	     -2.43813701	    -17.47852529	     85.49538377	      1.49217594	     16.40038365	    -13.59459807	      0.00000000	    -48.77725654	    -13.48478565	    -15.15861935	     89.79935546	     -7.74118074	     62.18948524	     17.98233034	     87.06388669	      0.00000000	      0.00000000	     89.85496321	     -4.40237475	     39.48023444	     28.90464953	     88.87095852	      0.00000000	      0.00000000
      0.05000000	     -7.83952388	     14.22000709	      1.16577267	     -0.25363634	      1.06281096	      0.26198943	     54.81874372	    -17.49574123	     15.84948485	     85.46162340	      1.49158671	     -0.15686342	    -24.80357475	      0.00000000	     74.62606145	     -2.42567573	    -17.13143632	     82.86192966	      1.44621350	     15.96811173	    -13.53261323	      0.00000000	    -48.86445637	    -13.19444617	    -14.53365078	     89.81056168	     -7.72175791	     62.07254888	     18.05244432	     87.05137971	      0.00000000	      0.00000000	     89.85308694	     -4.43210316	     39.52333268	     28.81882479	     88.87037843	      0.00000000	      0.00000000
      0.05833333	     -7.37455496	     15.04903718	      0.40581332	     -0.25305525	      1.06360351	      0.26221038	     56.03603259	    -17.69150330	     17.42893335	     88.24716958	      1.54020366	      1.64722974	    -22.79934715	      0.00000000	     72.10952272	     -2.07361978	    -18.35290294	     79.72397309	      1.39144582	     15.57069491	    -13.71510413	      0.00000000	    -49.37648891	    -14.14620696	    -14.76831502	     89.80979605	     -7.64910982	     61.60712976	     18.27456041	     87.14860825	      0.00000000	      0.00000000	     89.85422762	     -4.60759325	     39.50162354	     28.87361766	     88.86472275	      0.00000000	      0.00000000
      0.06666667	     -6.91933092	     15.33000740	     -0.04624134	     -0.25232365	      1.06413991	      0.26225366	     57.06150148	    -17.64170542	     18.41576258	     91.07828390	      1.58961593	      3.19619294	    -21.33656092	      0.00000000	     69.71525451	     -1.50392702	    -18.76981136	     76.55676138	      1.33616755	     14.87884370	    -14.12203335	      0.00000000	    -49.77974776	    -14.47387455	    -14.75594667	     89.81291605	     -7.59921095	     61.35250091	     18.43340291	     87.24206041	      0.00000000	      0.00000000	     89.85335924	     -4.69463601	     39.54567103	     28.80415734	     88.86058495	      0.00000000	      0.00000000
      0.07500000	     -6.43588569	     15.13599976	     -0.84265767	     -0.25158809	      1.06447923	      0.26321786	     57.95637795	    -16.78396737	     19.16593556	     93.77431770	      1.63667060	      4.39297593	    -20.66039632	      0.00000000	     67.34504827	     -1.72724833	    -19.04955022	     73.91888483	      1.29012792	     14.50635581	    -13.83548139	      0.00000000	    -50.06224579	    -14.71967182	    -14.13404235	     89.81788500	     -7.57112084	     61.20948596	     18.56125516	     87.24555100	      0.00000000	      0.00000000	     89.85100546	     -4.77760136	     39.67439706	     28.72081518	     88.85681062	      0.00000000	      0.00000000
      0.08333333	     -6.44212775	     15.69444035	     -1.11775862	     -0.25153374	      1.06458789	      0.26299104	     59.76711573	    -16.86075684	     20.48208304	     96.50697296	      1.68436443	      5.60908358	    -19.29239710	      0.00000000	     65.24222152	     -0.74491226	    -19.50446694	     70.48958295	      1.23027531	     13.53942698	    -14.34453894	      0.00000000	    -50.10573437	    -15.21805371	    -14.38465827	     89.81475652	     -7.52150722	     60.95452699	     18.69709063	     87.31003035	      0.00000000	      0.00000000	     89.84954505	     -4.87937968	     39.67323062	     28.70285136	     88.85656731	      0.00000000	      0.00000000
